<svg xmlns="http://www.w3.org/2000/svg" viewBox="0 0 420 160">
  <!-- ======= CABINA ======= -->
  <rect x="5" y="45" width="65" height="72" rx="5" fill="white" stroke="black" stroke-width="2"/>
  <path d="M10 45 Q10 28 35 26 Q60 24 70 45" fill="white" stroke="black" stroke-width="2"/>
  <path d="M14 44 Q14 32 35 30 Q56 28 66 44" fill="none" stroke="black" stroke-width="1.2"/>
  <rect x="12" y="52" width="22" height="16" rx="2" fill="none" stroke="black" stroke-width="1"/>
  <line x1="46" y1="60" x2="46" y2="117" stroke="black" stroke-width="0.8" stroke-dasharray="3,2"/>
  <rect x="50" y="83" width="8" height="3" rx="1.5" fill="none" stroke="black" stroke-width="1"/>
  <rect x="0" y="54" width="8" height="5" rx="1" fill="none" stroke="black" stroke-width="1"/>
  <line x1="5" y1="57" x2="12" y2="57" stroke="black" stroke-width="1"/>
  <rect x="6" y="97" width="14" height="8" rx="2" fill="none" stroke="black" stroke-width="1.2"/>
  <rect x="5" y="106" width="18" height="11" rx="1" fill="none" stroke="black" stroke-width="1"/>
  <line x1="5" y1="109" x2="23" y2="109" stroke="black" stroke-width="0.5"/>
  <line x1="5" y1="112" x2="23" y2="112" stroke="black" stroke-width="0.5"/>
  <rect x="3" y="117" width="24" height="5" rx="2" fill="none" stroke="black" stroke-width="1.5"/>
  <!-- Eje cabina-remolque -->
  <line x1="70" y1="90" x2="82" y2="90" stroke="black" stroke-width="3"/>

  <!-- ======= REMOLQUE ======= -->
  <rect x="80" y="28" width="332" height="97" rx="4" fill="white" stroke="black" stroke-width="2.5"/>
  <!-- King pin -->
  <rect x="76" y="118" width="14" height="7" rx="2" fill="none" stroke="black" stroke-width="1.5"/>

  <!-- ======= RACK ANALÓGICO (16 XLR macho, 2 filas x 8) ======= -->
  <rect x="88" y="36" width="150" height="81" rx="2" fill="none" stroke="black" stroke-width="1.2"/>
  <text x="163" y="46" text-anchor="middle" font-size="7" font-family="Arial,sans-serif" fill="black">Analógico</text>

  <!-- Fila 1: ch 1-8 (XLR macho: círculo + 3 pines rellenos) -->
  <!-- ch1 -->
  <circle cx="103" cy="62" r="7" fill="none" stroke="black" stroke-width="1.2"/>
  <circle cx="101" cy="63" r="1.4" fill="black"/><circle cx="105" cy="63" r="1.4" fill="black"/><circle cx="103" cy="60" r="1.4" fill="black"/>
  <text x="103" y="74" text-anchor="middle" font-size="5" font-family="Arial,sans-serif" fill="black">1</text>
  <!-- ch2 -->
  <circle cx="121" cy="62" r="7" fill="none" stroke="black" stroke-width="1.2"/>
  <circle cx="119" cy="63" r="1.4" fill="black"/><circle cx="123" cy="63" r="1.4" fill="black"/><circle cx="121" cy="60" r="1.4" fill="black"/>
  <text x="121" y="74" text-anchor="middle" font-size="5" font-family="Arial,sans-serif" fill="black">2</text>
  <!-- ch3 -->
  <circle cx="139" cy="62" r="7" fill="none" stroke="black" stroke-width="1.2"/>
  <circle cx="137" cy="63" r="1.4" fill="black"/><circle cx="141" cy="63" r="1.4" fill="black"/><circle cx="139" cy="60" r="1.4" fill="black"/>
  <text x="139" y="74" text-anchor="middle" font-size="5" font-family="Arial,sans-serif" fill="black">3</text>
  <!-- ch4 -->
  <circle cx="157" cy="62" r="7" fill="none" stroke="black" stroke-width="1.2"/>
  <circle cx="155" cy="63" r="1.4" fill="black"/><circle cx="159" cy="63" r="1.4" fill="black"/><circle cx="157" cy="60" r="1.4" fill="black"/>
  <text x="157" y="74" text-anchor="middle" font-size="5" font-family="Arial,sans-serif" fill="black">4</text>
  <!-- ch5 -->
  <circle cx="175" cy="62" r="7" fill="none" stroke="black" stroke-width="1.2"/>
  <circle cx="173" cy="63" r="1.4" fill="black"/><circle cx="177" cy="63" r="1.4" fill="black"/><circle cx="175" cy="60" r="1.4" fill="black"/>
  <text x="175" y="74" text-anchor="middle" font-size="5" font-family="Arial,sans-serif" fill="black">5</text>
  <!-- ch6 -->
  <circle cx="193" cy="62" r="7" fill="none" stroke="black" stroke-width="1.2"/>
  <circle cx="191" cy="63" r="1.4" fill="black"/><circle cx="195" cy="63" r="1.4" fill="black"/><circle cx="193" cy="60" r="1.4" fill="black"/>
  <text x="193" y="74" text-anchor="middle" font-size="5" font-family="Arial,sans-serif" fill="black">6</text>
  <!-- ch7 -->
  <circle cx="211" cy="62" r="7" fill="none" stroke="black" stroke-width="1.2"/>
  <circle cx="209" cy="63" r="1.4" fill="black"/><circle cx="213" cy="63" r="1.4" fill="black"/><circle cx="211" cy="60" r="1.4" fill="black"/>
  <text x="211" y="74" text-anchor="middle" font-size="5" font-family="Arial,sans-serif" fill="black">7</text>
  <!-- ch8 -->
  <circle cx="229" cy="62" r="7" fill="none" stroke="black" stroke-width="1.2"/>
  <circle cx="227" cy="63" r="1.4" fill="black"/><circle cx="231" cy="63" r="1.4" fill="black"/><circle cx="229" cy="60" r="1.4" fill="black"/>
  <text x="229" y="74" text-anchor="middle" font-size="5" font-family="Arial,sans-serif" fill="black">8</text>

  <!-- Fila 2: ch 9-16 -->
  <!-- ch9 -->
  <circle cx="103" cy="89" r="7" fill="none" stroke="black" stroke-width="1.2"/>
  <circle cx="101" cy="90" r="1.4" fill="black"/><circle cx="105" cy="90" r="1.4" fill="black"/><circle cx="103" cy="87" r="1.4" fill="black"/>
  <text x="103" y="101" text-anchor="middle" font-size="5" font-family="Arial,sans-serif" fill="black">9</text>
  <!-- ch10 -->
  <circle cx="121" cy="89" r="7" fill="none" stroke="black" stroke-width="1.2"/>
  <circle cx="119" cy="90" r="1.4" fill="black"/><circle cx="123" cy="90" r="1.4" fill="black"/><circle cx="121" cy="87" r="1.4" fill="black"/>
  <text x="121" y="101" text-anchor="middle" font-size="5" font-family="Arial,sans-serif" fill="black">10</text>
  <!-- ch11 -->
  <circle cx="139" cy="89" r="7" fill="none" stroke="black" stroke-width="1.2"/>
  <circle cx="137" cy="90" r="1.4" fill="black"/><circle cx="141" cy="90" r="1.4" fill="black"/><circle cx="139" cy="87" r="1.4" fill="black"/>
  <text x="139" y="101" text-anchor="middle" font-size="5" font-family="Arial,sans-serif" fill="black">11</text>
  <!-- ch12 -->
  <circle cx="157" cy="89" r="7" fill="none" stroke="black" stroke-width="1.2"/>
  <circle cx="155" cy="90" r="1.4" fill="black"/><circle cx="159" cy="90" r="1.4" fill="black"/><circle cx="157" cy="87" r="1.4" fill="black"/>
  <text x="157" y="101" text-anchor="middle" font-size="5" font-family="Arial,sans-serif" fill="black">12</text>
  <!-- ch13 -->
  <circle cx="175" cy="89" r="7" fill="none" stroke="black" stroke-width="1.2"/>
  <circle cx="173" cy="90" r="1.4" fill="black"/><circle cx="177" cy="90" r="1.4" fill="black"/><circle cx="175" cy="87" r="1.4" fill="black"/>
  <text x="175" y="101" text-anchor="middle" font-size="5" font-family="Arial,sans-serif" fill="black">13</text>
  <!-- ch14 -->
  <circle cx="193" cy="89" r="7" fill="none" stroke="black" stroke-width="1.2"/>
  <circle cx="191" cy="90" r="1.4" fill="black"/><circle cx="195" cy="90" r="1.4" fill="black"/><circle cx="193" cy="87" r="1.4" fill="black"/>
  <text x="193" y="101" text-anchor="middle" font-size="5" font-family="Arial,sans-serif" fill="black">14</text>
  <!-- ch15 -->
  <circle cx="211" cy="89" r="7" fill="none" stroke="black" stroke-width="1.2"/>
  <circle cx="209" cy="90" r="1.4" fill="black"/><circle cx="213" cy="90" r="1.4" fill="black"/><circle cx="211" cy="87" r="1.4" fill="black"/>
  <text x="211" y="101" text-anchor="middle" font-size="5" font-family="Arial,sans-serif" fill="black">15</text>
  <!-- ch16 -->
  <circle cx="229" cy="89" r="7" fill="none" stroke="black" stroke-width="1.2"/>
  <circle cx="227" cy="90" r="1.4" fill="black"/><circle cx="231" cy="90" r="1.4" fill="black"/><circle cx="229" cy="87" r="1.4" fill="black"/>
  <text x="229" y="101" text-anchor="middle" font-size="5" font-family="Arial,sans-serif" fill="black">16</text>

  <!-- ======= RACK HYDRA (9 XLR hembra, 3 filas x 3) ======= -->
  <rect x="248" y="36" width="156" height="81" rx="2" fill="none" stroke="black" stroke-width="1.2"/>
  <text x="326" y="46" text-anchor="middle" font-size="7" font-family="Arial,sans-serif" fill="black">Hydra</text>

  <!-- Fila 1: ch 1-3 (XLR hembra: círculo doble) -->
  <circle cx="272" cy="60" r="8" fill="none" stroke="black" stroke-width="1.5"/><circle cx="272" cy="60" r="3.5" fill="none" stroke="black" stroke-width="1"/>
  <text x="272" y="73" text-anchor="middle" font-size="5" font-family="Arial,sans-serif" fill="black">1</text>
  <circle cx="296" cy="60" r="8" fill="none" stroke="black" stroke-width="1.5"/><circle cx="296" cy="60" r="3.5" fill="none" stroke="black" stroke-width="1"/>
  <text x="296" y="73" text-anchor="middle" font-size="5" font-family="Arial,sans-serif" fill="black">2</text>
  <circle cx="320" cy="60" r="8" fill="none" stroke="black" stroke-width="1.5"/><circle cx="320" cy="60" r="3.5" fill="none" stroke="black" stroke-width="1"/>
  <text x="320" y="73" text-anchor="middle" font-size="5" font-family="Arial,sans-serif" fill="black">3</text>
  <circle cx="344" cy="60" r="8" fill="none" stroke="black" stroke-width="1.5"/><circle cx="344" cy="60" r="3.5" fill="none" stroke="black" stroke-width="1"/>
  <text x="344" y="73" text-anchor="middle" font-size="5" font-family="Arial,sans-serif" fill="black">4</text>
  <circle cx="368" cy="60" r="8" fill="none" stroke="black" stroke-width="1.5"/><circle cx="368" cy="60" r="3.5" fill="none" stroke="black" stroke-width="1"/>
  <text x="368" y="73" text-anchor="middle" font-size="5" font-family="Arial,sans-serif" fill="black">5</text>

  <!-- Fila 2: ch 6-9 -->
  <circle cx="272" cy="86" r="8" fill="none" stroke="black" stroke-width="1.5"/><circle cx="272" cy="86" r="3.5" fill="none" stroke="black" stroke-width="1"/>
  <text x="272" y="99" text-anchor="middle" font-size="5" font-family="Arial,sans-serif" fill="black">6</text>
  <circle cx="296" cy="86" r="8" fill="none" stroke="black" stroke-width="1.5"/><circle cx="296" cy="86" r="3.5" fill="none" stroke="black" stroke-width="1"/>
  <text x="296" y="99" text-anchor="middle" font-size="5" font-family="Arial,sans-serif" fill="black">7</text>
  <circle cx="320" cy="86" r="8" fill="none" stroke="black" stroke-width="1.5"/><circle cx="320" cy="86" r="3.5" fill="none" stroke="black" stroke-width="1"/>
  <text x="320" y="99" text-anchor="middle" font-size="5" font-family="Arial,sans-serif" fill="black">8</text>
  <circle cx="344" cy="86" r="8" fill="none" stroke="black" stroke-width="1.5"/><circle cx="344" cy="86" r="3.5" fill="none" stroke="black" stroke-width="1"/>
  <text x="344" y="99" text-anchor="middle" font-size="5" font-family="Arial,sans-serif" fill="black">9</text>

  <!-- ======= RUEDAS ======= -->
  <circle cx="55" cy="138" r="14" fill="white" stroke="black" stroke-width="2"/>
  <circle cx="55" cy="138" r="7" fill="none" stroke="black" stroke-width="1.2"/>
  <circle cx="55" cy="138" r="3" fill="none" stroke="black" stroke-width="1"/>

  <circle cx="240" cy="138" r="14" fill="white" stroke="black" stroke-width="2"/>
  <circle cx="240" cy="138" r="7" fill="none" stroke="black" stroke-width="1.2"/>
  <circle cx="240" cy="138" r="3" fill="none" stroke="black" stroke-width="1"/>

  <circle cx="310" cy="138" r="14" fill="white" stroke="black" stroke-width="2"/>
  <circle cx="310" cy="138" r="7" fill="none" stroke="black" stroke-width="1.2"/>
  <circle cx="310" cy="138" r="3" fill="none" stroke="black" stroke-width="1"/>

  <circle cx="348" cy="138" r="14" fill="white" stroke="black" stroke-width="2"/>
  <circle cx="348" cy="138" r="7" fill="none" stroke="black" stroke-width="1.2"/>
  <circle cx="348" cy="138" r="3" fill="none" stroke="black" stroke-width="1"/>

  <!-- Chasis -->
  <line x1="80" y1="125" x2="412" y2="125" stroke="black" stroke-width="2"/>

  <!-- Etiqueta -->
  <text x="246" y="156" text-anchor="middle" font-size="8.5" font-family="Arial,sans-serif" fill="black">Camión UM · Unidad Móvil</text>
</svg>
