<svg xmlns="http://www.w3.org/2000/svg" viewBox="0 0 220 130">
  <!-- Rack frame 4U estilo Calrec Br.IO -->
  <rect x="2" y="2" width="216" height="126" rx="3" fill="white" stroke="black" stroke-width="2"/>
  <!-- Etiqueta lateral HYDRA -->
  <rect x="5" y="5" width="18" height="120" rx="2" fill="none" stroke="black" stroke-width="0.8"/>
  <text x="14" y="65" text-anchor="middle" font-size="8" font-family="Arial,sans-serif" fill="black" transform="rotate(-90,14,65)">HYDRA NET</text>

  <!-- === SECCIÓN AES/DIGITAL izquierda === -->
  <rect x="26" y="5" width="50" height="120" rx="1" fill="none" stroke="black" stroke-width="0.8"/>
  <text x="51" y="14" text-anchor="middle" font-size="5.5" font-family="Arial,sans-serif" fill="black">AES3 / Digital</text>
  <!-- 8 BNC (4x2) -->
  <!-- Columna 1 -->
  <circle cx="38" cy="26" r="5" fill="none" stroke="black" stroke-width="1.2"/><circle cx="38" cy="26" r="2" fill="none" stroke="black" stroke-width="0.8"/>
  <text x="38" y="36" text-anchor="middle" font-size="4" font-family="Arial,sans-serif" fill="black">1</text>
  <circle cx="38" cy="48" r="5" fill="none" stroke="black" stroke-width="1.2"/><circle cx="38" cy="48" r="2" fill="none" stroke="black" stroke-width="0.8"/>
  <text x="38" y="58" text-anchor="middle" font-size="4" font-family="Arial,sans-serif" fill="black">2</text>
  <circle cx="38" cy="70" r="5" fill="none" stroke="black" stroke-width="1.2"/><circle cx="38" cy="70" r="2" fill="none" stroke="black" stroke-width="0.8"/>
  <text x="38" y="80" text-anchor="middle" font-size="4" font-family="Arial,sans-serif" fill="black">3</text>
  <circle cx="38" cy="92" r="5" fill="none" stroke="black" stroke-width="1.2"/><circle cx="38" cy="92" r="2" fill="none" stroke="black" stroke-width="0.8"/>
  <text x="38" y="102" text-anchor="middle" font-size="4" font-family="Arial,sans-serif" fill="black">4</text>
  <!-- Columna 2 -->
  <circle cx="60" cy="26" r="5" fill="none" stroke="black" stroke-width="1.2"/><circle cx="60" cy="26" r="2" fill="none" stroke="black" stroke-width="0.8"/>
  <text x="60" y="36" text-anchor="middle" font-size="4" font-family="Arial,sans-serif" fill="black">5</text>
  <circle cx="60" cy="48" r="5" fill="none" stroke="black" stroke-width="1.2"/><circle cx="60" cy="48" r="2" fill="none" stroke="black" stroke-width="0.8"/>
  <text x="60" y="58" text-anchor="middle" font-size="4" font-family="Arial,sans-serif" fill="black">6</text>
  <circle cx="60" cy="70" r="5" fill="none" stroke="black" stroke-width="1.2"/><circle cx="60" cy="70" r="2" fill="none" stroke="black" stroke-width="0.8"/>
  <text x="60" y="80" text-anchor="middle" font-size="4" font-family="Arial,sans-serif" fill="black">7</text>
  <circle cx="60" cy="92" r="5" fill="none" stroke="black" stroke-width="1.2"/><circle cx="60" cy="92" r="2" fill="none" stroke="black" stroke-width="0.8"/>
  <text x="60" y="102" text-anchor="middle" font-size="4" font-family="Arial,sans-serif" fill="black">8</text>
  <text x="51" y="118" text-anchor="middle" font-size="4.5" font-family="Arial,sans-serif" fill="black">BNC (AES)</text>

  <!-- === SECCIÓN XLR SALIDAS (macho) === -->
  <rect x="78" y="5" width="60" height="120" rx="1" fill="none" stroke="black" stroke-width="0.8"/>
  <text x="108" y="14" text-anchor="middle" font-size="5.5" font-family="Arial,sans-serif" fill="black">Line Out (XLR-M)</text>
  <!-- XLR Macho - 3 pines interior triángulo, 4x2=8 -->
  <!-- Fila 1 -->
  <circle cx="90" cy="28" r="7" fill="none" stroke="black" stroke-width="1.2"/>
  <circle cx="88" cy="29" r="1.2" fill="black"/><circle cx="92" cy="29" r="1.2" fill="black"/><circle cx="90" cy="26" r="1.2" fill="black"/>
  <text x="90" y="40" text-anchor="middle" font-size="4" font-family="Arial,sans-serif" fill="black">1</text>
  <circle cx="107" cy="28" r="7" fill="none" stroke="black" stroke-width="1.2"/>
  <circle cx="105" cy="29" r="1.2" fill="black"/><circle cx="109" cy="29" r="1.2" fill="black"/><circle cx="107" cy="26" r="1.2" fill="black"/>
  <text x="107" y="40" text-anchor="middle" font-size="4" font-family="Arial,sans-serif" fill="black">2</text>
  <circle cx="124" cy="28" r="7" fill="none" stroke="black" stroke-width="1.2"/>
  <circle cx="122" cy="29" r="1.2" fill="black"/><circle cx="126" cy="29" r="1.2" fill="black"/><circle cx="124" cy="26" r="1.2" fill="black"/>
  <text x="124" y="40" text-anchor="middle" font-size="4" font-family="Arial,sans-serif" fill="black">3</text>
  <!-- Fila 2 -->
  <circle cx="90" cy="54" r="7" fill="none" stroke="black" stroke-width="1.2"/>
  <circle cx="88" cy="55" r="1.2" fill="black"/><circle cx="92" cy="55" r="1.2" fill="black"/><circle cx="90" cy="52" r="1.2" fill="black"/>
  <text x="90" y="66" text-anchor="middle" font-size="4" font-family="Arial,sans-serif" fill="black">4</text>
  <circle cx="107" cy="54" r="7" fill="none" stroke="black" stroke-width="1.2"/>
  <circle cx="105" cy="55" r="1.2" fill="black"/><circle cx="109" cy="55" r="1.2" fill="black"/><circle cx="107" cy="52" r="1.2" fill="black"/>
  <text x="107" y="66" text-anchor="middle" font-size="4" font-family="Arial,sans-serif" fill="black">5</text>
  <circle cx="124" cy="54" r="7" fill="none" stroke="black" stroke-width="1.2"/>
  <circle cx="122" cy="55" r="1.2" fill="black"/><circle cx="126" cy="55" r="1.2" fill="black"/><circle cx="124" cy="52" r="1.2" fill="black"/>
  <text x="124" y="66" text-anchor="middle" font-size="4" font-family="Arial,sans-serif" fill="black">6</text>
  <!-- Fila 3 -->
  <circle cx="90" cy="80" r="7" fill="none" stroke="black" stroke-width="1.2"/>
  <circle cx="88" cy="81" r="1.2" fill="black"/><circle cx="92" cy="81" r="1.2" fill="black"/><circle cx="90" cy="78" r="1.2" fill="black"/>
  <text x="90" y="92" text-anchor="middle" font-size="4" font-family="Arial,sans-serif" fill="black">7</text>
  <circle cx="107" cy="80" r="7" fill="none" stroke="black" stroke-width="1.2"/>
  <circle cx="105" cy="81" r="1.2" fill="black"/><circle cx="109" cy="81" r="1.2" fill="black"/><circle cx="107" cy="78" r="1.2" fill="black"/>
  <text x="107" y="92" text-anchor="middle" font-size="4" font-family="Arial,sans-serif" fill="black">8</text>
  <circle cx="124" cy="80" r="7" fill="none" stroke="black" stroke-width="1.2"/>
  <circle cx="122" cy="81" r="1.2" fill="black"/><circle cx="126" cy="81" r="1.2" fill="black"/><circle cx="124" cy="78" r="1.2" fill="black"/>
  <text x="124" y="92" text-anchor="middle" font-size="4" font-family="Arial,sans-serif" fill="black">9</text>
  <text x="108" y="118" text-anchor="middle" font-size="4.5" font-family="Arial,sans-serif" fill="black">Salidas Analógicas</text>

  <!-- === SECCIÓN XLR ENTRADAS (hembra) 8ch === -->
  <rect x="140" y="5" width="60" height="120" rx="1" fill="none" stroke="black" stroke-width="0.8"/>
  <text x="170" y="14" text-anchor="middle" font-size="5.5" font-family="Arial,sans-serif" fill="black">Mic/Line In (XLR-F)</text>
  <!-- XLR Hembra - hueco central + 3 pines -->
  <!-- Fila 1 -->
  <circle cx="152" cy="28" r="7" fill="none" stroke="black" stroke-width="1.5"/>
  <circle cx="152" cy="28" r="3" fill="none" stroke="black" stroke-width="0.8"/>
  <text x="152" y="40" text-anchor="middle" font-size="4" font-family="Arial,sans-serif" fill="black">1</text>
  <circle cx="169" cy="28" r="7" fill="none" stroke="black" stroke-width="1.5"/>
  <circle cx="169" cy="28" r="3" fill="none" stroke="black" stroke-width="0.8"/>
  <text x="169" y="40" text-anchor="middle" font-size="4" font-family="Arial,sans-serif" fill="black">2</text>
  <circle cx="186" cy="28" r="7" fill="none" stroke="black" stroke-width="1.5"/>
  <circle cx="186" cy="28" r="3" fill="none" stroke="black" stroke-width="0.8"/>
  <text x="186" y="40" text-anchor="middle" font-size="4" font-family="Arial,sans-serif" fill="black">3</text>
  <!-- Fila 2 -->
  <circle cx="152" cy="54" r="7" fill="none" stroke="black" stroke-width="1.5"/>
  <circle cx="152" cy="54" r="3" fill="none" stroke="black" stroke-width="0.8"/>
  <text x="152" y="66" text-anchor="middle" font-size="4" font-family="Arial,sans-serif" fill="black">4</text>
  <circle cx="169" cy="54" r="7" fill="none" stroke="black" stroke-width="1.5"/>
  <circle cx="169" cy="54" r="3" fill="none" stroke="black" stroke-width="0.8"/>
  <text x="169" y="66" text-anchor="middle" font-size="4" font-family="Arial,sans-serif" fill="black">5</text>
  <circle cx="186" cy="54" r="7" fill="none" stroke="black" stroke-width="1.5"/>
  <circle cx="186" cy="54" r="3" fill="none" stroke="black" stroke-width="0.8"/>
  <text x="186" y="66" text-anchor="middle" font-size="4" font-family="Arial,sans-serif" fill="black">6</text>
  <!-- Fila 3 -->
  <circle cx="152" cy="80" r="7" fill="none" stroke="black" stroke-width="1.5"/>
  <circle cx="152" cy="80" r="3" fill="none" stroke="black" stroke-width="0.8"/>
  <text x="152" y="92" text-anchor="middle" font-size="4" font-family="Arial,sans-serif" fill="black">7</text>
  <circle cx="169" cy="80" r="7" fill="none" stroke="black" stroke-width="1.5"/>
  <circle cx="169" cy="80" r="3" fill="none" stroke="black" stroke-width="0.8"/>
  <text x="169" y="92" text-anchor="middle" font-size="4" font-family="Arial,sans-serif" fill="black">8</text>
  <circle cx="186" cy="80" r="7" fill="none" stroke="black" stroke-width="1.5"/>
  <circle cx="186" cy="80" r="3" fill="none" stroke="black" stroke-width="0.8"/>
  <text x="186" y="92" text-anchor="middle" font-size="4" font-family="Arial,sans-serif" fill="black">9</text>
  <text x="170" y="118" text-anchor="middle" font-size="4.5" font-family="Arial,sans-serif" fill="black">Entradas Analógicas</text>

  <!-- === Red / IP panel derecho === -->
  <rect x="202" y="5" width="14" height="120" rx="2" fill="none" stroke="black" stroke-width="0.8"/>
  <!-- Puerto RJ45/etherCON -->
  <rect x="204" y="20" width="10" height="8" rx="1" fill="none" stroke="black" stroke-width="1"/>
  <!-- Antena WiFi símbolo -->
  <path d="M209 40 Q209 35 209 32" stroke="black" stroke-width="1" fill="none"/>
  <path d="M205 38 Q205 30 209 28 Q213 30 213 38" fill="none" stroke="black" stroke-width="0.8"/>
  <path d="M203 42 Q203 29 209 26 Q215 29 215 42" fill="none" stroke="black" stroke-width="0.6"/>
  <!-- Conector BNC red -->
  <circle cx="209" cy="65" r="4" fill="none" stroke="black" stroke-width="1.2"/>
  <circle cx="209" cy="65" r="1.5" fill="none" stroke="black" stroke-width="0.8"/>
  <!-- LED status -->
  <circle cx="209" cy="80" r="2" fill="none" stroke="black" stroke-width="1"/>
  <circle cx="209" cy="87" r="2" fill="none" stroke="black" stroke-width="1"/>
  <text x="70" y="128" text-anchor="middle" font-size="8" font-family="Arial,sans-serif" fill="black">Panel Hydra (Calrec Br.IO)</text>
</svg>
