<svg xmlns="http://www.w3.org/2000/svg" viewBox="0 0 200 70">
  <!-- Rack frame 1U -->
  <rect x="2" y="2" width="196" height="66" rx="3" fill="white" stroke="black" stroke-width="2"/>
  <!-- Orejas de rack -->
  <rect x="2" y="10" width="6" height="8" rx="1" fill="none" stroke="black" stroke-width="0.8"/>
  <rect x="192" y="10" width="6" height="8" rx="1" fill="none" stroke="black" stroke-width="0.8"/>
  <rect x="2" y="48" width="6" height="8" rx="1" fill="none" stroke="black" stroke-width="0.8"/>
  <rect x="192" y="48" width="6" height="8" rx="1" fill="none" stroke="black" stroke-width="0.8"/>
  <!-- Label -->
  <text x="100" y="14" text-anchor="middle" font-size="6" font-family="Arial,sans-serif" fill="black">PATCH PANEL · 16 XLR</text>
  <!-- Divisor IN/OUT -->
  <line x1="10" y1="38" x2="190" y2="38" stroke="black" stroke-width="0.5" stroke-dasharray="2,2"/>
  <!-- Fila IN (hembra, arriba) - 8 conectores -->
  <text x="8" y="33" text-anchor="start" font-size="4" font-family="Arial,sans-serif" fill="black">IN</text>
  <circle cx="30" cy="27" r="7" fill="none" stroke="black" stroke-width="1.5"/><circle cx="30" cy="27" r="3" fill="none" stroke="black" stroke-width="0.8"/>
  <text x="30" y="37" text-anchor="middle" font-size="3.5" fill="black" font-family="Arial,sans-serif">1</text>
  <circle cx="50" cy="27" r="7" fill="none" stroke="black" stroke-width="1.5"/><circle cx="50" cy="27" r="3" fill="none" stroke="black" stroke-width="0.8"/>
  <text x="50" y="37" text-anchor="middle" font-size="3.5" fill="black" font-family="Arial,sans-serif">2</text>
  <circle cx="70" cy="27" r="7" fill="none" stroke="black" stroke-width="1.5"/><circle cx="70" cy="27" r="3" fill="none" stroke="black" stroke-width="0.8"/>
  <text x="70" y="37" text-anchor="middle" font-size="3.5" fill="black" font-family="Arial,sans-serif">3</text>
  <circle cx="90" cy="27" r="7" fill="none" stroke="black" stroke-width="1.5"/><circle cx="90" cy="27" r="3" fill="none" stroke="black" stroke-width="0.8"/>
  <text x="90" y="37" text-anchor="middle" font-size="3.5" fill="black" font-family="Arial,sans-serif">4</text>
  <circle cx="110" cy="27" r="7" fill="none" stroke="black" stroke-width="1.5"/><circle cx="110" cy="27" r="3" fill="none" stroke="black" stroke-width="0.8"/>
  <text x="110" y="37" text-anchor="middle" font-size="3.5" fill="black" font-family="Arial,sans-serif">5</text>
  <circle cx="130" cy="27" r="7" fill="none" stroke="black" stroke-width="1.5"/><circle cx="130" cy="27" r="3" fill="none" stroke="black" stroke-width="0.8"/>
  <text x="130" y="37" text-anchor="middle" font-size="3.5" fill="black" font-family="Arial,sans-serif">6</text>
  <circle cx="150" cy="27" r="7" fill="none" stroke="black" stroke-width="1.5"/><circle cx="150" cy="27" r="3" fill="none" stroke="black" stroke-width="0.8"/>
  <text x="150" y="37" text-anchor="middle" font-size="3.5" fill="black" font-family="Arial,sans-serif">7</text>
  <circle cx="170" cy="27" r="7" fill="none" stroke="black" stroke-width="1.5"/><circle cx="170" cy="27" r="3" fill="none" stroke="black" stroke-width="0.8"/>
  <text x="170" y="37" text-anchor="middle" font-size="3.5" fill="black" font-family="Arial,sans-serif">8</text>
  <!-- Fila OUT (macho, abajo) - 8 conectores -->
  <text x="8" y="50" text-anchor="start" font-size="4" font-family="Arial,sans-serif" fill="black">OUT</text>
  <circle cx="30" cy="54" r="7" fill="none" stroke="black" stroke-width="1.5"/>
  <circle cx="28" cy="55" r="1.2" fill="black"/><circle cx="32" cy="55" r="1.2" fill="black"/><circle cx="30" cy="52" r="1.2" fill="black"/>
  <text x="30" y="64" text-anchor="middle" font-size="3.5" fill="black" font-family="Arial,sans-serif">9</text>
  <circle cx="50" cy="54" r="7" fill="none" stroke="black" stroke-width="1.5"/>
  <circle cx="48" cy="55" r="1.2" fill="black"/><circle cx="52" cy="55" r="1.2" fill="black"/><circle cx="50" cy="52" r="1.2" fill="black"/>
  <text x="50" y="64" text-anchor="middle" font-size="3.5" fill="black" font-family="Arial,sans-serif">10</text>
  <circle cx="70" cy="54" r="7" fill="none" stroke="black" stroke-width="1.5"/>
  <circle cx="68" cy="55" r="1.2" fill="black"/><circle cx="72" cy="55" r="1.2" fill="black"/><circle cx="70" cy="52" r="1.2" fill="black"/>
  <text x="70" y="64" text-anchor="middle" font-size="3.5" fill="black" font-family="Arial,sans-serif">11</text>
  <circle cx="90" cy="54" r="7" fill="none" stroke="black" stroke-width="1.5"/>
  <circle cx="88" cy="55" r="1.2" fill="black"/><circle cx="92" cy="55" r="1.2" fill="black"/><circle cx="90" cy="52" r="1.2" fill="black"/>
  <text x="90" y="64" text-anchor="middle" font-size="3.5" fill="black" font-family="Arial,sans-serif">12</text>
  <circle cx="110" cy="54" r="7" fill="none" stroke="black" stroke-width="1.5"/>
  <circle cx="108" cy="55" r="1.2" fill="black"/><circle cx="112" cy="55" r="1.2" fill="black"/><circle cx="110" cy="52" r="1.2" fill="black"/>
  <text x="110" y="64" text-anchor="middle" font-size="3.5" fill="black" font-family="Arial,sans-serif">13</text>
  <circle cx="130" cy="54" r="7" fill="none" stroke="black" stroke-width="1.5"/>
  <circle cx="128" cy="55" r="1.2" fill="black"/><circle cx="132" cy="55" r="1.2" fill="black"/><circle cx="130" cy="52" r="1.2" fill="black"/>
  <text x="130" y="64" text-anchor="middle" font-size="3.5" fill="black" font-family="Arial,sans-serif">14</text>
  <circle cx="150" cy="54" r="7" fill="none" stroke="black" stroke-width="1.5"/>
  <circle cx="148" cy="55" r="1.2" fill="black"/><circle cx="152" cy="55" r="1.2" fill="black"/><circle cx="150" cy="52" r="1.2" fill="black"/>
  <text x="150" y="64" text-anchor="middle" font-size="3.5" fill="black" font-family="Arial,sans-serif">15</text>
  <circle cx="170" cy="54" r="7" fill="none" stroke="black" stroke-width="1.5"/>
  <circle cx="168" cy="55" r="1.2" fill="black"/><circle cx="172" cy="55" r="1.2" fill="black"/><circle cx="170" cy="52" r="1.2" fill="black"/>
  <text x="170" y="64" text-anchor="middle" font-size="3.5" fill="black" font-family="Arial,sans-serif">16</text>
</svg>
